
<svg width="360px" height="360px" viewBox="0 0 360 360" version="1.1" xmlns="http://www.w3.org/2000/svg" xmlns:xlink="http://www.w3.org/1999/xlink">
    <defs>
        <path d="M152.759366,76.608866 L116.809789,76.608866 C116.809789,98.6685458 98.9274646,116.553403 76.8677847,116.553403 L76.8677847,152.500447 C118.78067,152.500447 152.759366,118.521751 152.759366,76.608866" id="path-1"></path>
        <linearGradient x1="47.9601343%" y1="60.9100859%" x2="28.234964%" y2="2.62075629%" id="linearGradient-3">
            <stop stop-color="#000000" stop-opacity="0" offset="0%"></stop>
            <stop stop-color="#000000" stop-opacity="0.85931848" offset="85.931848%"></stop>
            <stop stop-color="#000000" offset="100%"></stop>
        </linearGradient>
        <path d="M60.5413259,0.717031454 C60.4923722,0.717368087 60.4433659,0.717538108 60.3943078,0.717538108 L0.480034954,0.717031454 L0.480034954,36.6645819 C22.5370127,36.6645819 40.4217653,54.5491656 40.4220391,76.6086127 L76.3716162,76.6086127 L76.3716162,40.3274311 L76.3716162,4.04624956 C76.3716162,2.56391549 76.1696978,1.48541815 75.7918432,0.717031454 L60.5413259,0.717031454 Z" id="path-4"></path>
    </defs>
    <g id="F1" stroke="none" stroke-width="1" fill="none" fill-rule="evenodd">
        <g id="F1-Rally-Mobile-01" transform="translate(0.000000, -96.000000)">
            <rect fill="#33333D" x="0" y="0" width="360" height="640"></rect>
            <g id="logo-symbol">
                <g transform="translate(100.000000, 196.000000)">
                    <g id="Page-1" transform="translate(3.000000, 3.000000)">
                        <g id="Group-8">
                            <path d="M36.9237539,76.6086127 C36.9237539,54.5489328 54.8060782,36.6640752 76.8682914,36.6640752 L76.8682914,0.717031454 C34.952873,0.717031454 0.974176891,34.6931943 0.974176891,76.6086127 L36.9237539,76.6086127 Z" id="Fill-2" fill="#005D57"></path>
                            <path d="M36.9237539,76.608866 L0.974176891,76.608866 C0.974176891,118.521751 34.952873,152.500447 76.8682914,152.500447 L76.8682914,116.553403 C54.8060782,116.553403 36.9237539,98.6685458 36.9237539,76.608866" id="Fill-4" fill="#007D51"></path>
                            <mask id="mask-2" fill="white">
                                <use xlink:href="#path-1"></use>
                            </mask>
                            <use id="Fill-6" fill="#37EFBA" xlink:href="#path-1"></use>
                            <polygon id="Rectangle" fill="url(#linearGradient-3)" opacity="0.0799999982" mask="url(#mask-2)" points="115.987342 75.0506329 158.873418 75.0506329 158.873418 125.734177 147.177215 125.734177"></polygon>
                        </g>
                        <g id="Group-13" transform="translate(76.388763, 0.000000)">
                            <mask id="mask-5" fill="white">
                                <use xlink:href="#path-4"></use>
                            </mask>
                            <g id="Clip-12"></g>
                            <path d="M40.4220391,76.6086127 L76.3716162,76.6086127 L76.3716162,16.6943398 C76.3716162,7.86844122 69.2176731,0.717031454 60.3943078,0.717031454 L0.477501688,0.717031454 L0.477501688,36.6640752 C22.5397148,36.6640752 40.4220391,54.5489328 40.4220391,76.6086127" id="Fill-11" fill="#1EB980" mask="url(#mask-5)"></path>
                        </g>
                    </g>
                </g>
            </g>
        </g>
    </g>
</svg>